<?xml version="1.0" standalone="no"?>
<!DOCTYPE svg PUBLIC "-//W3C//DTD SVG 20010904//EN"
 "http://www.w3.org/TR/2001/REC-SVG-20010904/DTD/svg10.dtd">
<svg version="1.0" xmlns="http://www.w3.org/2000/svg"
 width="1001.000000pt" height="1001.000000pt" viewBox="0 0 1001.000000 1001.000000"
 preserveAspectRatio="xMidYMid meet">
<metadata>
Created by potrace 1.11, written by Peter Selinger 2001-2013
</metadata>
<g transform="translate(0.000000,1001.000000) scale(0.100000,-0.100000)"
fill="#000000" stroke="none">
<path d="M5725 9699 c-27 -5 -957 -170 -2065 -365 -1108 -195 -2037 -359
-2065 -365 -127 -29 -235 -120 -302 -256 -35 -70 -38 -84 -41 -177 -3 -91 6
-152 87 -611 49 -280 92 -529 96 -551 6 -39 1 -50 -80 -185 -676 -1130 -787
-2518 -300 -3754 62 -158 206 -451 293 -597 96 -161 343 -520 447 -650 129
-162 254 -296 443 -477 186 -177 212 -213 243 -328 52 -196 116 -293 244 -368
73 -44 128 -60 270 -80 189 -27 408 -73 730 -154 613 -155 802 -188 1320 -236
174 -16 433 -47 540 -65 33 -5 121 -19 195 -30 74 -12 392 -66 705 -121 518
-92 579 -100 671 -97 88 3 108 7 165 35 84 42 143 93 191 167 50 77 58 109
113 421 74 419 97 505 159 588 11 16 71 70 131 120 145 120 417 393 537 537
539 650 854 1371 970 2220 20 147 23 206 23 540 0 334 -3 393 -23 540 -80 587
-253 1104 -530 1587 -112 197 -107 181 -107 328 1 91 8 169 24 260 43 238 17
375 -94 494 -99 106 -163 130 -505 191 -491 87 -571 115 -844 295 -309 203
-624 359 -959 475 -67 24 -68 24 -82 74 -8 28 -24 98 -35 155 -26 130 -48 187
-95 251 -48 65 -150 143 -224 171 -65 24 -174 32 -246 18z m214 -38 c67 -21
145 -74 183 -123 60 -79 69 -112 143 -533 40 -225 72 -411 71 -413 -2 -1 -475
81 -1052 183 -1139 202 -1120 200 -1237 155 -111 -42 -217 -155 -246 -262 -6
-24 -290 -1627 -631 -3563 -657 -3729 -631 -3585 -636 -3570 -2 6 -281 1583
-620 3505 -667 3783 -630 3553 -584 3673 28 75 116 167 192 201 41 19 512 106
2148 394 1152 204 2120 371 2152 371 31 1 83 -7 117 -18z m404 -1102 c1617
-285 2114 -375 2153 -393 127 -58 224 -206 224 -340 0 -58 -1257 -7181 -1277
-7237 -22 -63 -74 -132 -131 -174 -55 -41 -155 -75 -220 -75 -26 0 -994 167
-2152 371 -2248 396 -2159 378 -2247 453 -77 66 -133 187 -133 286 0 48 1256
7174 1274 7227 27 81 107 172 186 213 47 25 105 39 163 39 34 1 908 -149 2160
-370z"/>
<path d="M3091 8854 c-101 -18 -186 -35 -188 -38 -3 -3 -2 -21 1 -41 6 -31 11
-35 36 -35 17 0 30 -4 30 -8 0 -4 16 -97 35 -205 19 -108 35 -201 35 -207 0
-5 -12 -13 -26 -16 -23 -6 -25 -10 -19 -43 4 -20 9 -38 11 -40 5 -5 373 57
385 64 3 3 3 26 -2 52 -5 27 -11 62 -14 79 -5 29 -7 31 -43 24 -36 -6 -37 -7
-34 -46 l2 -41 -69 -12 c-112 -18 -106 -22 -120 69 -8 45 -11 83 -9 86 3 2 42
11 88 19 46 8 84 16 86 18 2 2 1 20 -3 40 -7 43 -15 45 -125 23 -38 -7 -68
-12 -68 -12 0 1 -7 39 -15 85 -8 47 -14 86 -12 87 6 6 162 32 169 28 4 -3 8
-14 8 -24 0 -39 10 -49 43 -43 52 9 52 7 21 151 -2 12 -8 22 -12 21 -4 -1 -90
-16 -191 -35z"/>
<path d="M2743 8791 l-82 -14 5 -31 c9 -51 13 -58 29 -52 13 5 15 -18 15 -161
0 -91 -2 -164 -4 -162 -4 4 -116 299 -116 305 0 2 7 4 16 4 13 0 15 7 10 31
-3 17 -6 37 -6 44 0 9 -18 9 -82 -2 -46 -8 -84 -16 -86 -18 -2 -2 -1 -22 3
-44 6 -37 9 -40 33 -35 27 5 28 4 116 -233 48 -131 92 -242 96 -247 5 -5 29
-5 54 -2 l46 7 1 222 c1 267 6 311 35 315 19 3 20 7 14 43 -4 22 -9 41 -11 42
-2 2 -41 -4 -86 -12z"/>
<path d="M2152 8692 l-143 -26 7 -41 c3 -22 8 -43 10 -46 2 -3 29 -2 59 4 31
5 59 7 62 4 6 -6 72 -370 73 -398 0 -13 -14 -19 -57 -26 l-58 -8 3 -35 c4 -59
4 -59 79 -45 37 7 112 20 165 30 l98 17 -6 41 c-4 23 -8 43 -9 45 -2 2 -29 -1
-61 -7 -31 -6 -59 -10 -60 -8 -2 2 -74 398 -74 410 0 3 27 11 61 18 54 11 60
14 55 33 -3 12 -6 31 -6 44 0 28 -10 28 -198 -6z"/>
<path d="M1596 8594 c-38 -8 -71 -16 -74 -18 -2 -3 -1 -21 2 -41 6 -31 11 -35
36 -35 17 0 30 -4 30 -8 0 -4 16 -97 35 -205 19 -108 35 -201 35 -207 0 -5
-12 -13 -26 -16 -23 -6 -25 -10 -19 -43 4 -20 9 -38 11 -40 5 -5 373 57 385
64 3 3 3 26 -2 52 -5 27 -11 62 -14 79 -5 29 -7 31 -43 24 -36 -6 -37 -7 -34
-47 l2 -41 -85 -13 c-47 -7 -87 -10 -88 -8 -2 2 -18 90 -36 194 -18 105 -35
200 -38 213 -4 17 -1 22 15 22 28 0 35 15 28 56 -8 39 -11 40 -120 18z"/>
<path d="M1927 7741 c-7 -63 -40 -128 -110 -216 -73 -94 -87 -124 -87 -188 0
-61 21 -97 70 -122 61 -32 145 -8 183 51 12 19 26 34 31 34 11 0 -1 -96 -16
-124 -21 -43 -73 -86 -120 -102 -27 -9 -48 -22 -48 -30 0 -8 2 -14 5 -14 15 0
460 81 463 85 13 13 -16 25 -61 25 -96 1 -172 57 -193 144 l-7 30 32 -23 c73
-52 147 -47 201 16 29 33 32 41 28 89 -6 72 -34 105 -162 194 -111 76 -147
111 -174 167 -9 18 -19 33 -22 33 -4 0 -10 -22 -13 -49z"/>
<path d="M4102 8580 c-57 -30 -85 -71 -90 -136 -4 -42 0 -60 18 -89 28 -45 80
-80 143 -96 56 -14 107 -65 107 -107 0 -87 -129 -134 -196 -71 -24 23 -47 77
-42 100 4 16 -72 31 -78 15 -2 -6 -10 -47 -18 -91 -16 -90 -13 -97 44 -93 21
1 52 -7 79 -20 56 -30 134 -31 189 -3 106 54 136 191 60 277 -35 40 -69 60
-139 80 -83 25 -113 91 -64 139 37 37 106 35 146 -4 17 -17 29 -40 29 -55 0
-29 4 -32 51 -41 l35 -7 13 82 c15 92 11 102 -44 98 -16 -1 -45 6 -64 16 -54
29 -129 31 -179 6z"/>
<path d="M4495 8526 c-2 -6 -6 -26 -9 -43 -5 -30 -3 -33 19 -33 33 0 33 -3
-10 -240 -19 -107 -35 -197 -35 -199 0 -2 -11 -1 -25 1 -29 6 -30 5 -39 -43
l-6 -36 92 -16 c102 -19 108 -17 108 41 0 28 -3 32 -26 32 -19 0 -24 4 -20 18
2 9 10 50 16 90 11 68 14 73 34 69 103 -25 151 -19 202 25 47 41 64 77 64 135
0 60 -32 120 -79 147 -43 25 -281 69 -286 52z m235 -125 c57 -26 66 -95 18
-143 -18 -18 -28 -20 -86 -15 -36 4 -67 9 -70 11 -4 5 13 116 24 158 6 20 59
15 114 -11z"/>
<path d="M4955 8446 c-2 -6 -6 -26 -9 -43 -5 -30 -3 -33 19 -33 33 0 33 -3
-10 -240 -19 -107 -35 -196 -35 -198 0 -2 -12 -2 -27 0 -24 3 -28 -1 -35 -36
-5 -21 -7 -40 -6 -41 5 -5 354 -65 374 -65 17 0 22 11 33 76 7 42 11 77 9 79
-2 1 -20 5 -40 9 l-38 7 -6 -41 c-4 -26 -11 -39 -19 -37 -6 3 -46 11 -88 17
-63 10 -77 16 -73 29 2 9 10 49 16 89 7 39 13 72 13 72 1 0 37 -7 80 -15 43
-8 85 -15 92 -15 17 0 30 70 15 80 -6 3 -46 12 -90 19 -45 8 -80 18 -80 25 0
17 27 157 31 161 2 2 27 -1 54 -6 28 -5 65 -11 84 -14 33 -6 33 -7 27 -45 -6
-38 -5 -39 28 -46 19 -3 39 -3 44 0 5 3 12 29 16 58 4 29 9 63 12 74 5 20 -1
23 -83 38 -282 50 -305 54 -308 42z"/>
<path d="M5425 8366 c-2 -6 -6 -26 -9 -43 -5 -30 -3 -33 19 -33 33 0 33 -3
-10 -240 -19 -107 -35 -196 -35 -198 0 -2 -12 -2 -27 0 -24 3 -28 -1 -35 -36
-5 -21 -7 -40 -6 -41 5 -5 354 -65 374 -65 17 0 22 11 33 76 7 42 11 77 9 79
-2 1 -20 5 -40 9 l-38 7 -6 -41 c-4 -26 -11 -39 -19 -37 -6 3 -46 11 -88 17
-63 10 -77 16 -73 29 2 9 10 49 16 89 7 39 13 72 13 72 1 0 37 -7 80 -15 43
-8 85 -15 92 -15 17 0 30 70 15 80 -6 3 -46 12 -90 19 -45 8 -80 18 -80 25 0
17 27 157 31 161 2 2 27 -1 54 -6 28 -5 65 -11 84 -14 33 -6 33 -7 27 -45 -6
-38 -5 -39 28 -46 19 -3 39 -3 44 0 5 3 12 29 16 58 4 29 9 63 12 74 5 20 -1
23 -83 38 -282 50 -305 54 -308 42z"/>
<path d="M5880 8276 c0 -7 -3 -28 -6 -45 -6 -28 -4 -31 17 -31 49 0 49 -4 10
-225 l-38 -210 -35 1 c-32 1 -37 -2 -42 -29 -11 -52 -10 -53 87 -70 163 -30
204 -22 267 50 93 105 128 320 70 433 -35 68 -89 98 -220 120 -36 6 -75 13
-87 15 -15 4 -23 1 -23 -9z m235 -136 c34 -32 47 -104 35 -188 -11 -81 -30
-128 -66 -172 -33 -39 -66 -52 -108 -44 l-32 5 33 187 c18 103 35 201 38 218
5 31 7 31 41 24 20 -5 46 -18 59 -30z"/>
<path d="M3967 7745 c-79 -27 -113 -86 -105 -180 3 -41 25 -95 91 -232 86
-178 117 -262 117 -315 0 -15 3 -28 8 -28 4 0 23 28 42 62 25 43 77 101 177
196 158 151 203 215 203 294 0 86 -67 152 -153 152 -61 0 -103 -22 -141 -72
l-23 -32 -6 27 c-19 95 -123 158 -210 128z"/>
<path d="M3750 6713 c0 -4 -16 -101 -37 -215 -20 -115 -34 -211 -31 -214 4 -3
72 -17 152 -31 81 -15 146 -31 146 -37 0 -6 -95 -554 -211 -1217 l-213 -1206
-154 27 c-108 19 -155 24 -157 16 -7 -20 -76 -428 -73 -430 6 -4 2133 -377
2149 -376 12 0 29 79 90 426 42 234 72 427 67 430 -9 6 -386 74 -408 74 -13 0
-23 -41 -50 -201 -19 -110 -37 -204 -40 -209 -3 -4 -225 32 -495 79 l-490 87
3 30 c5 46 420 2395 424 2399 1 2 67 -8 146 -22 79 -14 145 -23 148 -20 5 5
83 430 80 434 -3 3 -1023 183 -1037 183 -5 0 -9 -3 -9 -7z"/>
<path d="M6620 6204 c-134 -28 -266 -87 -388 -174 -184 -129 -299 -296 -358
-516 -25 -94 -26 -293 -1 -384 42 -155 139 -311 278 -445 162 -156 353 -258
574 -304 134 -29 188 -47 265 -88 145 -79 266 -201 329 -333 31 -66 36 -86 39
-171 7 -168 -49 -305 -172 -416 -236 -216 -611 -243 -873 -65 -188 127 -296
353 -279 583 l6 86 -188 33 c-103 18 -198 34 -212 37 l-26 5 -87 -499 c-81
-458 -92 -533 -84 -533 2 0 92 -16 200 -35 108 -19 203 -35 211 -35 9 0 18 22
26 65 l12 65 39 -33 c168 -138 279 -202 439 -252 312 -97 622 -62 914 105 280
160 457 413 506 722 17 108 8 303 -19 393 -100 333 -399 636 -740 750 -42 13
-128 36 -191 50 -161 35 -273 91 -378 190 -97 91 -136 149 -159 237 -14 56
-16 77 -6 130 23 137 117 261 250 330 98 52 162 68 267 68 191 0 323 -56 461
-195 132 -131 186 -258 172 -405 -5 -56 -3 -60 16 -65 29 -6 355 -63 386 -67
l25 -3 81 464 c53 301 78 464 71 467 -11 3 -408 74 -418 74 -3 0 -8 -22 -12
-49 l-7 -50 -72 55 c-187 141 -454 225 -710 223 -67 0 -151 -7 -187 -15z"/>
<path d="M7162 2226 c-22 -38 -82 -106 -183 -204 -197 -192 -233 -260 -191
-356 49 -108 192 -125 270 -30 l29 34 29 -56 c34 -67 79 -96 149 -96 91 0 149
65 150 167 0 56 -7 75 -92 250 -64 131 -98 215 -111 270 l-18 79 -32 -58z"/>
<path d="M5205 1608 c-83 -46 -145 -165 -160 -308 -12 -121 28 -221 106 -260
32 -17 238 -64 246 -56 1 1 5 21 9 44 6 38 5 42 -14 42 -51 0 -51 -3 -10 223
21 117 38 214 38 216 0 2 15 1 34 -2 29 -5 35 -2 40 16 16 60 13 63 -87 80
-107 20 -173 21 -202 5z m132 -81 c1 -2 -64 -377 -72 -414 -4 -19 -9 -20 -34
-13 -86 24 -105 60 -99 185 7 124 50 219 113 246 16 7 84 3 92 -4z"/>
<path d="M5561 1518 c-19 -99 -19 -101 14 -110 38 -10 55 -4 55 21 0 48 5 49
93 33 45 -8 84 -16 85 -17 5 -5 -20 -159 -27 -167 -3 -3 -42 0 -86 8 -44 8
-85 12 -91 10 -7 -3 -14 -21 -16 -40 -5 -41 -8 -39 105 -57 63 -10 77 -15 73
-28 -2 -9 -10 -49 -17 -89 -11 -66 -14 -73 -33 -68 -12 3 -51 10 -87 16 l-67
12 5 38 c5 38 5 39 -31 46 -20 3 -39 5 -41 2 -7 -7 -28 -148 -23 -153 5 -5
381 -74 385 -71 1 1 5 21 9 44 6 38 5 42 -14 42 -12 0 -23 4 -26 9 -3 4 11
104 32 220 l37 213 26 -6 c22 -4 28 -1 33 17 8 31 7 67 -1 67 -5 0 -84 14
-178 30 -93 16 -178 30 -187 30 -12 0 -19 -14 -27 -52z"/>
<path d="M6021 1428 c-19 -99 -19 -101 14 -110 38 -10 55 -4 55 21 0 48 5 49
93 33 45 -8 84 -16 85 -17 5 -5 -20 -159 -27 -167 -3 -3 -42 0 -86 8 -44 8
-85 12 -91 10 -7 -3 -14 -21 -16 -40 -5 -41 -8 -39 105 -57 63 -10 77 -15 73
-28 -2 -9 -10 -49 -17 -89 -11 -66 -14 -73 -33 -68 -12 3 -51 10 -87 16 l-67
12 5 38 c5 38 5 39 -31 46 -20 3 -39 5 -41 2 -7 -7 -28 -148 -23 -153 5 -5
381 -74 385 -71 1 1 5 21 9 44 6 38 5 42 -14 42 -12 0 -23 4 -26 9 -3 4 11
104 32 220 l37 213 26 -6 c22 -4 28 -1 33 17 8 31 7 67 -1 67 -5 0 -84 14
-178 30 -93 16 -178 30 -187 30 -12 0 -19 -14 -27 -52z"/>
<path d="M6690 1357 c0 -8 -3 -29 -6 -46 -6 -28 -4 -31 20 -31 30 0 30 -3 13
-105 -7 -38 -17 -70 -22 -70 -6 1 -37 4 -70 9 -48 6 -70 4 -103 -9 -103 -42
-141 -164 -79 -255 38 -57 65 -69 202 -94 72 -13 131 -23 132 -22 1 1 5 21 9
44 6 38 5 42 -14 42 -12 0 -23 4 -26 9 -3 4 11 104 32 220 l37 213 26 -6 c22
-4 28 -1 33 17 15 58 10 64 -61 76 -38 6 -80 14 -95 17 -20 4 -28 2 -28 -9z
m-5 -339 c3 -3 -25 -170 -30 -176 -1 -1 -26 3 -56 9 -71 15 -99 41 -99 93 0
27 7 47 23 64 20 22 27 24 91 19 37 -4 70 -7 71 -9z"/>
<path d="M7080 1300 c-144 -26 -212 -177 -128 -286 38 -48 60 -63 121 -81 106
-31 145 -93 91 -147 -56 -55 -165 -20 -180 59 -5 28 -11 34 -41 40 -19 3 -37
5 -38 3 -2 -2 -10 -40 -18 -85 -15 -90 -14 -93 54 -93 15 0 46 -9 70 -20 53
-24 97 -25 147 -5 171 72 138 278 -53 326 -99 25 -138 114 -76 173 73 70 201
25 201 -71 0 -37 3 -40 50 -45 l34 -3 17 92 c15 89 15 93 -3 99 -10 3 -31 4
-46 3 -15 -2 -43 6 -62 16 -45 23 -96 33 -140 25z"/>
</g>
</svg>
