<?xml version="1.0" encoding="utf-8"?>
<!-- Generator: Adobe Illustrator 23.0.1, SVG Export Plug-In . SVG Version: 6.00 Build 0)  -->
<svg version="1.1" id="Layer_1" xmlns="http://www.w3.org/2000/svg" xmlns:xlink="http://www.w3.org/1999/xlink" x="0px" y="0px"
	 viewBox="0 0 900 200" style="enable-background:new 0 0 900 200;" xml:space="preserve">
<style type="text/css">
	.st0{fill:#FFFFFF;stroke:#4D4D4D;stroke-width:2;stroke-miterlimit:10;}
	.st1{fill:#FFFFFF;}
	.st2{fill:none;stroke:#4D4D4D;stroke-width:2;stroke-miterlimit:10;}
	.st3{fill:#ED1C24;}
	.st4{fill:#FF0000;}
	.st5{fill:#710838;}
	.st6{fill:#AA6B88;}
	.st7{fill:#20733A;}
	.st8{fill:#054519;}
</style>
<g id="LiveSpeed_Text_1_">
	<g>
		<g>
			<g>
				<path class="st5" d="M41.86,194.09c-12.7,0-23-10.3-23-23v-16.5c0-8.66,4.78-16.2,11.85-20.12V81.71
					c-7.07-3.92-11.85-11.46-11.85-20.12v-16.5c0-12.7,10.3-23,23-23h39.3c12.7,0,23,10.3,23,23v16.5c0,8.47-4.58,15.87-11.4,19.87
					v39.87c4.06-3.6,9.4-5.78,15.25-5.78h16.05c12.7,0,23,10.3,23,23v32.55c0,12.7-10.3,23-23,23H41.86z"/>
			</g>
			<g>
				<path class="st5" d="M139.12,193.79c-12.7,0-23-10.3-23-23v-17.7c0-12.7,10.3-23,23-23h3.55V85.94h-3.55c-12.7,0-23-10.3-23-23
					V45.09c0-12.7,10.3-23,23-23h69.6c12.7,0,23,10.3,23,23v17.85c0,12.7-10.3,23-23,23h-2.95v44.15h2.95c12.7,0,23,10.3,23,23v17.7
					c0,12.7-10.3,23-23,23H139.12z"/>
			</g>
			<g>
				<path class="st5" d="M254.98,193.34c-11.07,0-20.58-7.89-22.61-18.78l-17.04-91.27c-8.52-3.37-14.55-11.68-14.55-21.4v-16.5
					c0-12.7,10.3-23,23-23h34.35c2.35,0,4.62,0.35,6.75,1.01c2.13-0.65,4.4-1.01,6.75-1.01h34.35c12.7,0,23,10.3,23,23v16.5
					c0,9.71-6.02,18.01-14.52,21.39l-16.91,91.25c-2.02,10.9-11.53,18.81-22.62,18.81H254.98z"/>
			</g>
			<g>
				<path class="st5" d="M318.2,194.09c-12.7,0-23-10.3-23-23v-16.5c0-8.66,4.78-16.2,11.85-20.12V81.71
					c-7.07-3.92-11.85-11.46-11.85-20.12v-16.5c0-12.7,10.3-23,23-23h82.2c12.7,0,23,10.3,23,23v32.55c0,10.11-6.53,18.7-15.6,21.78
					c0,0.09,0,16.77,0,16.77c0,0.19,0,0.38-0.01,0.56c9.08,3.08,15.61,11.67,15.61,21.79v32.55c0,12.7-10.3,23-23,23H318.2z"/>
			</g>
			<g>
				<path class="st5" d="M453.8,196.19c-7.14,0-13.98-1.07-20.48-3.2c-1.54,0.33-3.14,0.5-4.78,0.5h-16.05c-12.7,0-23-10.3-23-23
					v-38.85c0-8.75,4.88-16.36,12.08-20.24c-9.75-11.78-12.08-24.17-12.08-33.31c0-16.08,6.36-30.48,18.39-41.67
					c11.56-10.75,25.9-16.43,41.45-16.43c7.09,0,13.72,0.86,19.85,2.58c1.27-0.22,2.58-0.33,3.91-0.33h16.05c12.7,0,23,10.3,23,23
					v35.1c0,6.55-2.74,12.46-7.13,16.65c8.72,10.48,13.28,23.06,13.28,36.9c0,17.3-6.88,32.78-19.91,44.75
					C485.9,190.12,470.48,196.19,453.8,196.19z"/>
			</g>
			<g>
				<path class="st5" d="M504.9,194.09c-12.7,0-23-10.3-23-23v-16.5c0-8.66,4.78-16.2,11.85-20.12V81.71
					c-7.07-3.92-11.85-11.46-11.85-20.12v-16.5c0-12.7,10.3-23,23-23h47.4c15.91,0,30.17,6.06,41.23,17.53
					c10.84,11.25,16.57,25.43,16.57,41.02c0,15.77-5.81,30.02-16.81,41.23c-9.05,9.23-20.19,14.91-32.58,16.7
					c4.02,4.14,6.49,9.79,6.49,16.01v16.5c0,12.7-10.3,23-23,23H504.9z"/>
			</g>
			<g>
				<path class="st5" d="M596.85,194.09c-12.7,0-23-10.3-23-23v-16.5c0-8.66,4.78-16.2,11.85-20.12V81.71
					c-7.07-3.92-11.85-11.46-11.85-20.12v-16.5c0-12.7,10.3-23,23-23h82.2c12.7,0,23,10.3,23,23v32.55c0,10.11-6.53,18.7-15.6,21.78
					c0,0.09,0,16.77,0,16.77c0,0.19,0,0.38-0.01,0.56c9.08,3.08,15.61,11.67,15.61,21.79v32.55c0,12.7-10.3,23-23,23H596.85z"/>
			</g>
			<g>
				<path class="st5" d="M691.28,194.09c-12.7,0-23-10.3-23-23v-16.5c0-8.66,4.78-16.2,11.85-20.12V81.71
					c-7.07-3.92-11.85-11.46-11.85-20.12v-16.5c0-12.7,10.3-23,23-23h82.2c12.7,0,23,10.3,23,23v32.55c0,10.11-6.53,18.7-15.6,21.78
					c0,0.09,0,16.77,0,16.77c0,0.19,0,0.38-0.01,0.56c9.08,3.08,15.61,11.67,15.61,21.79v32.55c0,12.7-10.3,23-23,23H691.28z"/>
			</g>
			<g>
				<path class="st5" d="M785.49,194.09c-12.7,0-23-10.3-23-23v-16.5c0-9.83,6.17-18.22,14.85-21.51V83.1
					c-8.68-3.29-14.85-11.68-14.85-21.51v-16.5c0-12.7,10.3-23,23-23h36.3c25.11,0,44.8,10.72,56.94,30.99
					c8.52,14.12,12.87,32.6,12.87,54.86c0,19.67-3.91,37.13-11.61,51.89c-11.5,22.09-30.68,34.26-53.99,34.26H785.49z"/>
			</g>
		</g>
	</g>
	<g>
		<g>
			<g>
				<path class="st6" d="M31.86,186.09c-13.81,0-25-11.19-25-25v-16.5c0-8.98,4.74-16.86,11.85-21.27V72.85
					C11.6,68.45,6.86,60.57,6.86,51.59v-16.5c0-13.81,11.19-25,25-25h39.3c13.81,0,25,11.19,25,25v16.5
					c0,8.79-4.54,16.52-11.4,20.98v34.77c3.84-2.41,8.38-3.8,13.25-3.8h16.05c13.81,0,25,11.19,25,25v32.55c0,13.81-11.19,25-25,25
					H31.86z"/>
			</g>
			<g>
				<path class="st6" d="M129.12,185.79c-13.81,0-25-11.19-25-25v-17.7c0-13.81,11.19-25,25-25h1.55V77.94h-1.55
					c-13.81,0-25-11.19-25-25V35.09c0-13.81,11.19-25,25-25h69.6c13.81,0,25,11.19,25,25v17.85c0,13.81-11.19,25-25,25h-0.95v40.15
					h0.95c13.81,0,25,11.19,25,25v17.7c0,13.81-11.19,25-25,25H129.12z"/>
			</g>
			<g>
				<path class="st6" d="M244.98,185.34c-12.04,0-22.37-8.58-24.58-20.41l-16.84-90.21c-8.71-3.91-14.78-12.66-14.78-22.82v-16.5
					c0-13.81,11.19-25,25-25h34.35c2.34,0,4.6,0.32,6.75,0.92c2.15-0.6,4.41-0.92,6.75-0.92h34.35c13.81,0,25,11.19,25,25v16.5
					c0,10.16-6.05,18.9-14.75,22.81l-16.72,90.19c-2.2,11.85-12.53,20.44-24.58,20.44H244.98z"/>
			</g>
			<g>
				<path class="st6" d="M308.2,186.09c-13.81,0-25-11.19-25-25v-16.5c0-8.98,4.74-16.86,11.85-21.27V72.85
					c-7.11-4.41-11.85-12.28-11.85-21.27v-16.5c0-13.81,11.19-25,25-25h82.2c13.81,0,25,11.19,25,25v32.55
					c0,10.48-6.45,19.46-15.6,23.17v14.55c9.15,3.72,15.6,12.69,15.6,23.17v32.55c0,13.81-11.19,25-25,25H308.2z"/>
			</g>
			<g>
				<path class="st6" d="M443.8,188.19c-7.18,0-14.06-1.05-20.6-3.13c-1.51,0.28-3.06,0.43-4.65,0.43h-16.05
					c-13.81,0-25-11.19-25-25v-38.85c0-8.66,4.4-16.29,11.09-20.78c-8.91-11.66-11.09-23.74-11.09-32.77
					c0-16.64,6.58-31.56,19.03-43.13c11.95-11.1,26.75-16.97,42.81-16.97c7.11,0,13.78,0.85,19.96,2.54
					c1.24-0.19,2.51-0.29,3.8-0.29h16.05c13.81,0,25,11.19,25,25v35.1c0,6.45-2.44,12.33-6.46,16.77
					c8.28,10.55,12.61,23.06,12.61,36.78c0,17.87-7.11,33.86-20.55,46.23C476.88,181.94,460.99,188.19,443.8,188.19z"/>
			</g>
			<g>
				<path class="st6" d="M494.9,186.09c-13.81,0-25-11.19-25-25v-16.5c0-8.98,4.74-16.86,11.85-21.27V72.85
					c-7.11-4.41-11.85-12.28-11.85-21.27v-16.5c0-13.81,11.19-25,25-25h47.4c16.46,0,31.22,6.27,42.67,18.14
					c11.21,11.63,17.13,26.29,17.13,42.41c0,16.3-6.01,31.04-17.38,42.63c-8.52,8.68-18.82,14.33-30.25,16.68
					c2.98,4.12,4.73,9.17,4.73,14.64v16.5c0,13.81-11.19,25-25,25H494.9z"/>
			</g>
			<g>
				<path class="st6" d="M586.85,186.09c-13.81,0-25-11.19-25-25v-16.5c0-8.98,4.74-16.86,11.85-21.27V72.85
					c-7.11-4.41-11.85-12.28-11.85-21.27v-16.5c0-13.81,11.19-25,25-25h82.2c13.81,0,25,11.19,25,25v32.55
					c0,10.48-6.45,19.46-15.6,23.17v14.55c9.15,3.72,15.6,12.69,15.6,23.17v32.55c0,13.81-11.19,25-25,25H586.85z"/>
			</g>
			<g>
				<path class="st6" d="M681.28,186.09c-13.81,0-25-11.19-25-25v-16.5c0-8.98,4.74-16.86,11.85-21.27V72.85
					c-7.11-4.41-11.85-12.28-11.85-21.27v-16.5c0-13.81,11.19-25,25-25h82.2c13.81,0,25,11.19,25,25v32.55
					c0,10.48-6.45,19.46-15.6,23.17v14.55c9.15,3.72,15.6,12.69,15.6,23.17v32.55c0,13.81-11.19,25-25,25H681.28z"/>
			</g>
			<g>
				<path class="st6" d="M775.49,186.09c-13.81,0-25-11.19-25-25v-16.5c0-10.19,6.1-18.96,14.85-22.85V74.44
					c-8.75-3.89-14.85-12.66-14.85-22.85v-16.5c0-13.81,11.19-25,25-25h36.3c25.85,0,46.13,11.05,58.65,31.96
					c8.71,14.43,13.15,33.26,13.15,55.89c0,19.99-3.98,37.76-11.84,52.81c-11.86,22.78-31.67,35.33-55.76,35.33H775.49z"/>
			</g>
		</g>
	</g>
	<g>
		<g>
			<g>
				<polygon class="st1" points="23.86,169.09 23.86,136.59 35.71,136.59 35.71,59.59 23.86,59.59 23.86,27.09 79.16,27.09 
					79.16,59.59 67.76,59.59 67.76,136.59 90.01,136.59 90.01,120.54 122.06,120.54 122.06,169.09 				"/>
			</g>
			<g>
				<polygon class="st1" points="121.12,168.79 121.12,135.09 147.67,135.09 147.67,60.94 121.12,60.94 121.12,27.09 206.72,27.09 
					206.72,60.94 180.77,60.94 180.77,135.09 206.72,135.09 206.72,168.79 				"/>
			</g>
			<g>
				<path class="st1" d="M238.33,168.34L218.08,59.89h-12.31v-32.5h98.2v32.5h-12.3l-20.1,108.45H238.33z M254.83,82.05l4.11-22.16
					h-8.25L254.83,82.05z"/>
			</g>
			<g>
				<polygon class="st1" points="300.2,169.09 300.2,136.59 312.05,136.59 312.05,59.59 300.2,59.59 300.2,27.09 398.4,27.09 
					398.4,75.64 366.35,75.64 366.35,59.59 344.1,59.59 344.1,81.69 382.8,81.69 382.8,114.19 344.1,114.19 344.1,136.59 
					366.35,136.59 366.35,120.54 398.4,120.54 398.4,169.09 				"/>
			</g>
			<g>
				<path class="st1" d="M443.8,171.19c-6.05,0-11.81-0.99-17.26-2.97v0.27h-32.05v-54.85h31.83l0.11,7.89
					c0.07,5.12,1.68,9.18,4.92,12.39c3.28,3.25,7.24,4.76,12.49,4.76c4.68,0,8.75-1.54,12.45-4.72c3.38-2.91,4.96-6.13,4.96-10.15
					c0-2.48-0.63-5.79-5.57-9.37c-4.09-3.01-8.44-4.46-13.34-4.46c-11.81,0-22.58-3.75-32-11.16c-10.52-8.4-15.83-18.73-15.83-30.74
					c0-11.97,4.58-22.29,13.6-30.68c8.87-8.24,19.38-12.42,31.24-12.42c6,0,11.54,0.75,16.56,2.25h31.25v51.1h-32.05v-8
					c0-3.47-1.34-6.15-4.36-8.67c-3.36-2.81-7.1-4.18-11.42-4.18c-3.44,0-6.28,1.06-8.96,3.34c-3.38,2.83-3.81,5.37-3.81,7.26
					c0,0.85,0,3.1,4.56,6c3.57,2.3,7.21,3.4,11.2,3.4c13.12,0,24.82,4.27,34.78,12.69c10.75,9.04,16.22,20.39,16.22,33.71
					c0,13.18-5.07,24.52-15.06,33.71C468.42,166.62,456.84,171.19,443.8,171.19z"/>
			</g>
			<g>
				<path class="st1" d="M486.9,169.09v-32.5h11.85v-77H486.9v-32.5h55.4c11.91,0,22.15,4.36,30.43,12.95
					c8.21,8.51,12.37,18.81,12.37,30.6c0,11.92-4.21,22.26-12.52,30.73c-8.35,8.51-18.62,12.82-30.53,12.82H530.8v22.4h11.4v32.5
					H486.9z M542.7,81.69c2.81,0,5-0.96,7.08-3.12c2.23-2.3,3.27-4.82,3.27-7.94c0-3.09-1.03-5.58-3.23-7.82
					c-2.19-2.23-4.51-3.23-7.52-3.23h-11.5v22.1L542.7,81.69z"/>
			</g>
			<g>
				<polygon class="st1" points="578.85,169.09 578.85,136.59 590.7,136.59 590.7,59.59 578.85,59.59 578.85,27.09 677.05,27.09 
					677.05,75.64 645,75.64 645,59.59 622.75,59.59 622.75,81.69 661.45,81.69 661.45,114.19 622.75,114.19 622.75,136.59 
					645,136.59 645,120.54 677.05,120.54 677.05,169.09 				"/>
			</g>
			<g>
				<polygon class="st1" points="673.28,169.09 673.28,136.59 685.13,136.59 685.13,59.59 673.28,59.59 673.28,27.09 771.48,27.09 
					771.48,75.64 739.43,75.64 739.43,59.59 717.18,59.59 717.18,81.69 755.88,81.69 755.88,114.19 717.18,114.19 717.18,136.59 
					739.43,136.59 739.43,120.54 771.48,120.54 771.48,169.09 				"/>
			</g>
			<g>
				<path class="st1" d="M767.49,169.09v-32.5h14.85v-77h-14.85v-32.5h44.3c19.83,0,34.65,7.97,44.07,23.69
					c7.12,11.79,10.74,27.67,10.74,47.16c0,17.23-3.33,32.35-9.91,44.95c-8.92,17.14-22.99,26.2-40.69,26.2H767.49z M815.01,136.59
					c4.57,0,10.38-1.37,14.85-12.04c3.11-7.3,4.67-16.24,4.67-26.61c0-34.98-13.26-38.05-20.15-38.32v76.97H815.01z"/>
			</g>
		</g>
	</g>
	<g>
		<g>
			<g>
				<polygon class="st7" points="27.86,165.09 27.86,140.59 39.71,140.59 39.71,55.59 27.86,55.59 27.86,31.09 75.16,31.09 
					75.16,55.59 63.76,55.59 63.76,140.59 94.01,140.59 94.01,124.54 118.06,124.54 118.06,165.09 				"/>
			</g>
			<g>
				<polygon class="st7" points="125.12,164.79 125.12,139.09 151.67,139.09 151.67,56.94 125.12,56.94 125.12,31.09 202.72,31.09 
					202.72,56.94 176.77,56.94 176.77,139.09 202.72,139.09 202.72,164.79 				"/>
			</g>
			<g>
				<polygon class="st7" points="241.65,164.34 221.41,55.89 209.78,55.89 209.78,31.39 252.13,31.39 252.13,55.89 245.87,55.89 
					254.84,103.92 263.74,55.89 257.63,55.89 257.63,31.39 299.98,31.39 299.98,55.89 288.35,55.89 268.25,164.34 				"/>
			</g>
			<g>
				<polygon class="st7" points="304.2,165.09 304.2,140.59 316.05,140.59 316.05,55.59 304.2,55.59 304.2,31.09 394.4,31.09 
					394.4,71.64 370.35,71.64 370.35,55.59 340.1,55.59 340.1,85.69 378.8,85.69 378.8,110.19 340.1,110.19 340.1,140.59 
					370.35,140.59 370.35,124.54 394.4,124.54 394.4,165.09 				"/>
			</g>
			<g>
				<path class="st8" d="M443.8,167.19c-7.6,0-14.72-1.7-21.26-5.08v2.38h-24.05v-46.85h23.88l0.05,3.95
					c0.08,6.22,2.08,11.19,6.11,15.18c4.02,3.99,9.02,5.92,15.3,5.92c5.68,0,10.6-1.86,15.06-5.69c4.27-3.67,6.35-7.99,6.35-13.19
					c0-4.96-2.36-9.09-7.22-12.61c-4.78-3.52-9.9-5.22-15.69-5.22c-10.89,0-20.83-3.47-29.53-10.3c-9.5-7.58-14.31-16.86-14.31-27.6
					c0-10.81,4.15-20.15,12.33-27.75c8.1-7.53,17.69-11.35,28.51-11.35c7.42,0,14.04,1.22,19.76,3.64v-1.39h24.05v43.1h-24.05v-4
					c0-4.64-1.89-8.48-5.79-11.74c-4.11-3.44-8.69-5.11-13.99-5.11c-4.38,0-8.16,1.41-11.55,4.3c-3.52,2.95-5.22,6.31-5.22,10.3
					c0,3.57,2.1,6.63,6.41,9.37c4.21,2.71,8.57,4.03,13.34,4.03c12.14,0,22.98,3.95,32.2,11.74c9.82,8.25,14.8,18.57,14.8,30.66
					c0,12.01-4.63,22.37-13.77,30.77C466.48,162.97,455.8,167.19,443.8,167.19z"/>
			</g>
			<g>
				<path class="st8" d="M490.9,165.09v-24.5h11.85v-85H490.9v-24.5h51.4c10.78,0,20.05,3.94,27.55,11.72
					c7.46,7.74,11.25,17.1,11.25,27.83c0,10.84-3.83,20.23-11.37,27.93c-7.57,7.71-16.88,11.62-27.67,11.62H526.8v30.4h11.4v24.5
					H490.9z M542.31,85.69l0.4,0c3.88,0,7.13-1.42,9.96-4.34c2.96-3.05,4.39-6.56,4.39-10.72c0-4.15-1.43-7.62-4.38-10.62
					c-2.92-2.98-6.32-4.43-10.37-4.43h-15.5v30.1H542.31z"/>
			</g>
			<g>
				<polygon class="st8" points="582.85,165.09 582.85,140.59 594.7,140.59 594.7,55.59 582.85,55.59 582.85,31.09 673.05,31.09 
					673.05,71.64 649,71.64 649,55.59 618.75,55.59 618.75,85.69 657.45,85.69 657.45,110.19 618.75,110.19 618.75,140.59 
					649,140.59 649,124.54 673.05,124.54 673.05,165.09 				"/>
			</g>
			<g>
				<polygon class="st8" points="677.28,165.09 677.28,140.59 689.13,140.59 689.13,55.59 677.28,55.59 677.28,31.09 767.48,31.09 
					767.48,71.64 743.43,71.64 743.43,55.59 713.18,55.59 713.18,85.69 751.88,85.69 751.88,110.19 713.18,110.19 713.18,140.59 
					743.43,140.59 743.43,124.54 767.48,124.54 767.48,165.09 				"/>
			</g>
			<g>
				<path class="st8" d="M771.49,165.09v-24.5h14.85v-85h-14.85v-24.5h40.3c18.32,0,32,7.32,40.63,21.75
					c6.74,11.17,10.17,26.35,10.17,45.1c0,16.58-3.18,31.08-9.45,43.1c-8.31,15.96-20.8,24.05-37.15,24.05H771.49z M815.01,140.59
					c8.39,0,14.45-4.74,18.54-14.5c3.31-7.78,4.98-17.25,4.98-28.15c0-42.35-19.53-42.35-25.95-42.35h-2.2v85H815.01z"/>
			</g>
		</g>
	</g>
</g>
</svg>
